<?xml version="1.0" encoding="utf-8"?>
<!-- Generator: Adobe Illustrator 15.0.2, SVG Export Plug-In . SVG Version: 6.00 Build 0)  -->
<!DOCTYPE svg PUBLIC "-//W3C//DTD SVG 1.1//EN" "http://www.w3.org/Graphics/SVG/1.1/DTD/svg11.dtd">
<svg version="1.1" id="Layer_1" xmlns="http://www.w3.org/2000/svg" xmlns:xlink="http://www.w3.org/1999/xlink" x="0px" y="0px"
	 width="512px" height="358.959px" viewBox="-0.329 0 512 358.959" enable-background="new -0.329 0 512 358.959"
	 xml:space="preserve">
<path d="M507.447,133.755c-3.737-4.753-9.457-7.528-15.505-7.528h-27.177V71.811c0-10.892-8.831-19.723-19.723-19.723H248.548
	L223.067,9.58C219.511,3.633,213.087,0,206.159,0H61.069C50.177,0,41.346,8.831,41.346,19.723v106.504H19.394
	c-5.961,0-11.602,2.696-15.343,7.331c-3.744,4.635-5.193,10.719-3.937,16.542l41.675,193.287c1.957,9.081,9.989,15.572,19.28,15.572
	h383.974c9.101,0,17.017-6.23,19.164-15.071l46.909-193.294C512.541,144.722,511.193,138.513,507.447,133.755z M80.792,39.445
	h114.193l25.481,42.509c3.566,5.946,9.987,9.579,16.918,9.579H425.32v34.693H80.792V39.445z M429.538,319.514H76.995L43.821,165.672
	h423.044L429.538,319.514z"/>
</svg>
