<svg
   class="tc-image-open-book tc-image-button"
   viewBox="0 0 128 128"
   width="22pt"
   height="22pt">
  <g
     transform="matrix(3.9568439,0,0,4.0302923,2.6344539,-0.52795934)"
     >
      <path
         d="M 31.18,8.628 C 31.137,8.561 30.457,7.375 29.092,6.157 27.74,4.946 25.637,3.686 22.869,3.686 c -2.768,0 -4.85,1.264 -6.181,2.482 -0.41,0.376 -0.754,0.747 -1.039,1.086 C 15.358,6.913 14.998,6.538 14.577,6.157 13.219,4.946 11.118,3.686 8.348,3.686 5.58,3.686 3.5,4.95 2.169,6.168 0.832,7.389 0.181,8.579 0.142,8.648 L 0,9.196 v 17.882 l 2.143,0.547 0.003,0.004 c 0.029,-0.062 0.61,-1.054 1.664,-1.98 1.065,-0.934 2.548,-1.795 4.538,-1.799 2.049,0 3.609,0.923 4.706,1.898 0.54,0.484 0.964,0.971 1.234,1.334 0.14,0.183 0.238,0.333 0.304,0.428 0.03,0.051 0.055,0.09 0.068,0.115 0.005,0.01 0.012,0.018 0.012,0.021 l 0,0 0,0 h 0.005 l 1.989,-0.018 0,0 0.002,-0.004 V 27.62 c 0.045,-0.082 0.623,-1.058 1.66,-1.973 1.07,-0.934 2.555,-1.795 4.541,-1.799 2.049,0 3.605,0.923 4.707,1.898 0.545,0.484 0.957,0.971 1.23,1.334 0.141,0.183 0.24,0.333 0.307,0.428 0.033,0.051 0.053,0.09 0.068,0.115 0.008,0.01 0.012,0.018 0.012,0.021 h 0.002 l 0,0 2.137,-0.568 V 9.196 L 31.18,8.628 z M 8.348,21.566 H 8.346 c -2.689,0 -4.727,1.193 -6.057,2.376 V 9.518 C 2.524,9.159 3.037,8.449 3.81,7.765 4.875,6.833 6.358,5.972 8.348,5.972 c 2.049,0 3.609,0.924 4.706,1.895 0.54,0.483 0.964,0.976 1.234,1.339 0.097,0.124 0.175,0.237 0.23,0.323 v 14.467 c -1.35,-1.198 -3.435,-2.43 -6.17,-2.43 z m 20.695,2.43 c -1.359,-1.2 -3.439,-2.43 -6.174,-2.43 -2.688,-0.004 -4.727,1.193 -6.062,2.376 V 9.518 c 0.236,-0.356 0.75,-1.069 1.521,-1.753 1.07,-0.932 2.555,-1.793 4.541,-1.793 2.049,0 3.605,0.924 4.707,1.895 0.545,0.483 0.957,0.976 1.23,1.339 0.098,0.124 0.176,0.237 0.236,0.323 l 10e-4,14.467 0,0 z"
          />
  </g>
</svg>
