<svg
   class="tc-open-folder tc-image-button"
   viewBox="0 0 128 128"
   width="22pt"
   height="22pt"
  <path
     d="m 126.47777,50.54909 c -0.91879,-1.30079 -2.32514,-2.060244 -3.81211,-2.060244 h -6.68185 V 33.596444 c 0,-2.980891 -2.17123,-5.397722 -4.84917,-5.397722 H 62.823852 L 56.558995,16.565261 C 55.684703,14.937707 54.105273,13.943434 52.40192,13.943434 H 16.72953 c -2.677946,0 -4.849172,2.416848 -4.849172,5.39773 V 48.488846 H 6.4831542 c -1.465595,0 -2.852518,0.73784 -3.772287,2.006327 -0.920517,1.268488 -1.2767706,2.93354 -0.967965,4.527168 L 11.989269,107.9205 c 0.481161,2.48527 2.455939,4.26171 4.740261,4.26171 h 94.40535 c 2.23761,0 4.18387,-1.70501 4.71174,-4.12459 l 11.53322,-52.900083 c 0.35037,-1.607033 0.0189,-3.306294 -0.90207,-4.608447 z M 21.578703,24.73862 h 28.075936 l 6.264857,11.63373 c 0.876755,1.627283 2.455446,2.62155 4.159538,2.62155 h 46.206676 v 9.49467 H 21.578703 V 24.73862 z m 85.744057,76.6484 H 20.645153 L 12.488879,59.284033 H 116.50013 l -9.17737,42.102987 z"
     />
</svg>
