<svg
   class="tc-image-recent tc-image-button"
   viewBox="0 0 128 128"
   width="22pt"
   height="22pt">
  <g
     transform="matrix(1.3253042,0,0,1.3432162,0.60725293,1.5887743)"
     >
    <path
       d="M 53.131,6 C 30.902,6 12.832,23.806 12.287,45.976 H 0 l 18.393,20.5 18.391,-20.5 H 22.506 C 23.045,29.468 36.545,16.25 53.131,16.25 c 16.93,0 30.652,13.767 30.652,30.75 0,16.983 -13.722,30.75 -30.652,30.75 -6.789,0 -13.059,-2.218 -18.137,-5.966 l -7.029,7.521 C 34.904,84.751 43.639,88 53.131,88 75.703,88 94,69.645 94,47 94,24.355 75.703,6 53.131,6 z M 49.498,25 V 48.45 L 64.525,63.474 69.474,58.525 56.5,45.55 V 25 h -7.002 z"
       />
  </g>
</svg>
